<?xml version="1.0" encoding="utf-8"?>
<!-- Generator: Adobe Illustrator 16.0.0, SVG Export Plug-In . SVG Version: 6.00 Build 0)  -->
<!DOCTYPE svg PUBLIC "-//W3C//DTD SVG 1.1//EN" "http://www.w3.org/Graphics/SVG/1.1/DTD/svg11.dtd">
<svg version="1.1" id="Layer_1" xmlns="http://www.w3.org/2000/svg" xmlns:xlink="http://www.w3.org/1999/xlink" x="0px" y="0px"
	 width="499.116px" height="146px" viewBox="0 0 499.116 146" enable-background="new 0 0 499.116 146" xml:space="preserve">
<g>
	<path d="M189.65,71.05v35.6c0,14.644-6.061,21.461-18.935,21.461c-14.898,0-18.053-11.614-18.053-21.461v-35.6h-4.42v35.6
		c0,16.791,7.574,25.375,22.473,25.375c15.4,0,23.228-8.458,23.228-25.375v-35.6H189.65z"/>
	<path d="M222.221,86.451c-6.691,0-12.499,3.533-14.896,9.087c0-2.017,0-8.075,0-8.075h-3.914v43.045h3.914v-23.227
		c0-10.479,5.808-17.297,14.896-17.297c11.614,0,11.614,10.1,11.614,13.508v27.143h3.913v-26.51
		C237.623,99.202,237.623,86.451,222.221,86.451z"/>
	<polygon points="247.218,87.463 247.218,130.508 251.004,130.508 251.004,87.463 250.624,87.463 	"/>
	<polygon points="247.218,74.331 247.218,80.139 251.004,80.139 251.004,74.331 250.624,74.331 	"/>
	<path d="M289.382,87.463c0,0-13.634,36.986-14.139,38.25c-0.505-1.264-15.152-38.25-15.152-38.25h-4.417l17.294,43.045h4.42
		l16.287-43.045h-0.506H289.382z"/>
	<path d="M314.627,86.451c-5.049,0-9.339,1.766-12.621,5.049c-4.168,4.165-6.438,10.855-6.438,18.179
		c-0.127,6.817,2.019,12.624,5.934,16.663c3.28,3.412,7.951,5.178,13.126,5.178c10.356,0,16.917-5.556,18.685-15.655l0.125-0.378
		h-3.91v0.251c-1.517,7.703-6.945,12.246-14.772,12.246c-4.039,0-7.448-1.391-10.098-4.037c-3.282-3.285-5.048-8.46-5.048-14.141
		c0,0,0,0,0-0.127c0.757,0,34.208,0,34.208,0v-0.38c0-0.505,0-1.137,0-1.639c0-6.565-2.02-12.246-5.554-16.034
		C324.729,88.344,320.184,86.451,314.627,86.451z M314.627,89.984c9.598,0,14.772,8.207,15.151,16.412c-0.759,0-29.413,0-30.17,0
		C300.365,98.191,305.667,89.984,314.627,89.984z"/>
	<path d="M344.422,96.043c0-1.893,0-8.58,0-8.58h-3.915v43.045h3.915v-23.479c0.38-6.438,1.766-8.837,4.673-11.992
		c4.543-4.42,9.844-4.168,11.36-4.042h0.38V87.21h-0.38C353.511,86.958,346.694,90.741,344.422,96.043z"/>
	<path d="M381.285,106.649l-1.261-0.253c-6.438-1.388-12.499-2.651-12.499-8.71c0-5.681,6.061-7.829,11.867-7.829
		c4.542,0,12.119,1.391,12.119,10.479v0.38h3.91v-0.38c0-8.961-5.681-13.885-16.029-13.885c-3.665,0-15.658,0.759-15.658,11.235
		c0,9.342,8.588,11.107,14.9,12.371l1.137,0.253c6.688,1.391,13.126,2.651,13.126,9.09c0,7.824-9.088,8.583-13,8.583
		c-7.828,0-13.13-4.669-13.636-11.992v-0.379h-3.787v0.379c0.253,9.468,6.94,15.401,17.55,15.401c3.91,0,16.914-0.885,16.914-12.119
		C396.561,110.311,389.615,108.289,381.285,106.649z"/>
	<polygon points="404.512,87.463 404.512,130.508 408.426,130.508 408.426,87.463 408.048,87.463 	"/>
	<path d="M468.516,87.463c0,0-13.636,36.357-14.265,37.996c-0.632-1.639-15.526-37.996-15.526-37.996s-13.131,0-13.763,0
		c0-0.632,0-13.132,0-13.132h-0.38h-3.532c0,0,0,12.5,0,13.132c-0.632,0-7.829,0-7.829,0v3.531c0,0,7.197,0,7.829,0
		c0,0.759,0,29.16,0,29.16c0,0.254,0,0.507,0,0.759c0,3.285,0.759,5.68,2.524,7.323c2.524,2.524,6.818,2.524,10.227,2.398h0.38
		v-3.41h-0.38c-3.534,0.127-5.807-0.126-7.197-1.512c-1.137-1.012-1.642-2.778-1.642-5.559c0,0,0-28.528,0-29.16
		c0.632,0,10.353,0,10.731,0c0.127,0.506,16.287,38.76,16.413,39.012c-1.896,5.428-3.033,8.454-4.294,9.718
		c-2.02,2.022-4.04,2.654-8.583,2.654h-0.38v3.405h0.38c4.669,0,7.702-0.127,10.097-2.02c1.769-1.386,3.159-4.42,5.052-8.836
		l18.305-47.338h-4.167V87.463z"/>
	<polygon points="404.512,74.331 404.512,80.139 408.426,80.139 408.426,74.331 408.048,74.331 	"/>
</g>
<g>
	<path d="M246.079,61.835c-17.167-0.38-31.559-13.51-31.181-31.814c0.504-14.391,11.992-30.677,32.949-30.045
		c14.645,0.253,30.928,11.236,30.549,31.435C277.89,51.734,260.849,62.338,246.079,61.835z M246.711,3.89
		c-13.128,0-22.219,9.593-22.219,25.878c0,19.443,11.488,28.152,22.346,28.152c13.126,0,21.84-10.099,21.84-26.006
		C268.805,14.745,259.964,3.89,246.711,3.89z"/>
	<path d="M498.308,1.743V0.86h-17.167v0.883c3.409,0.252,4.289,0.883,4.289,5.68V28.38h-30.799V7.423
		c0-4.797,0.881-5.553,4.293-5.68V0.86h-17.17v0.883c3.407,0.252,4.293,0.883,4.293,5.68v46.96c0,4.799-0.886,5.557-4.293,5.684
		v0.882h17.17v-0.882c-3.412-0.253-4.293-0.885-4.293-5.684V32.041h30.799v22.47c0,4.798-0.88,5.557-4.289,5.682v0.884h17.167
		v-0.884c-3.405-0.252-4.29-0.884-4.29-5.682V7.55C494.018,2.626,494.902,1.996,498.308,1.743z"/>
	<path d="M282.942,0.86v0.883c3.281,0.127,4.293,0.505,4.293,4.039v48.729c0,4.798-0.885,5.557-4.293,5.682v0.884h13.003v-0.884
		c-3.408-0.252-4.293-0.884-4.293-5.682V10.706c0,0.756,33.457,41.534,40.776,50.37h1.388V5.782c0-3.534,0.884-3.787,4.293-4.039
		V0.86h-12.751v0.883c3.283,0.127,4.293,0.505,4.293,4.039v38.252L294.307,0.86H282.942z"/>
	<path d="M367.273,0.86h-1.138c-3.03,7.195-17.168,40.522-21.966,52.01c-0.883,2.021-2.272,5.177-3.283,6.313
		c-0.758,0.885-1.517,0.885-2.272,1.01v0.884h11.487v-0.884c-0.881,0-2.902,0-3.029-1.767c0-0.506,0.127-1.138,0.38-1.768
		c0.379-1.009,2.649-6.942,5.554-13.508h22.848c2.274,5.554,4.293,10.352,5.305,12.499l0,0c0.252,0.629,0.881,2.145,0.881,2.776
		c0,1.642-1.513,1.767-3.153,1.767v0.884h16.031v-0.884c-2.02-0.125-2.648-0.632-4.037-3.914L367.273,0.86z M354.396,39.362
		c3.91-9.595,9.844-24.744,9.844-24.744s5.428,13.636,9.975,24.744H354.396z"/>
	<path d="M144.835,0.86v0.883c1.893,0.127,2.904,0.252,3.533,1.01c0.127,0.252,0.38,0.632,0.507,0.884l0,0
		c0.127,0.252,0.127,0.63,0.127,1.01c0,0.379,0,0.756,0,1.135v48.729c0,4.798-0.884,5.557-4.293,5.682v0.884h12.876v-0.884
		c-3.408-0.252-4.292-0.884-4.292-5.682V12.727c0-0.759-0.126-2.274-0.126-2.274l0.758,2.274l20.829,48.096h1.262l21.209-49.485
		l0.632-2.021c0,0-0.127,1.01-0.127,1.894v43.299c0,4.798-0.882,5.557-4.291,5.682v0.884h17.169v-0.884
		c-3.409-0.252-4.293-0.884-4.293-5.682V5.782c0-3.534,0.884-3.787,4.293-4.039V0.86h-13.383l-19.188,45.446L158.597,0.86H144.835z"
		/>
	<path d="M397.824,57.036c4.036,2.398,9.97,4.925,16.408,4.925c0.127,0,0.252,0,0.379,0c9.343-0.126,19.316-7.07,19.316-18.054
		c0-11.866-8.334-14.644-16.665-18.936c-8.458-4.167-11.993-6.312-11.993-11.866c0-3.788,2.271-9.342,9.849-9.342
		c2.397,0,4.542,0.63,6.312,1.515c6.06,3.407,6.439,8.205,7.196,11.235h0.882l-0.505-13.381c-3.915-1.641-6.941-2.398-9.09-2.651
		c-1.264-0.126-2.524-0.252-3.531-0.252c-8.461,0-18.306,5.05-18.306,15.654c0,7.195,4.289,11.74,12.874,16.031
		c8.458,4.292,14.896,6.06,14.896,14.519c0,4.292-2.524,11.866-11.994,11.866c-3.783,0-6.816-1.263-9.215-3.283
		c-5.68-5.3-5.553-9.595-5.934-11.235h-0.88V57.036"/>
</g>
<g>
	<g>
		<path id="SVGID_1_" d="M88.783,29.768h-1.009V8.559c0.884,2.147,1.009,4.293,1.009,6.06V29.768z M48.64,21.31
			c1.262,0.379,2.65,0.632,4.166,0.758v-1.011c-1.262-0.126-2.651-0.379-3.913-0.756c-1.641-0.379-3.156-0.758-4.67-0.758
			c-0.759,0-1.516,0.127-2.147,0.379v1.135c0.506-0.252,1.262-0.379,2.147-0.379C45.61,20.554,47.125,20.931,48.64,21.31z
			 M36.395,20.554c0.883,0,1.642,0.125,2.145,0.377v-1.136c-0.63-0.252-1.388-0.379-2.145-0.379c-1.515,0-3.029,0.379-4.671,0.758
			c-1.262,0.379-2.524,0.63-3.914,0.757v1.011c1.39-0.126,2.778-0.379,4.167-0.758C33.618,20.931,35.006,20.554,36.395,20.554z
			 M36.395,18.028c0.883,0,1.642,0.252,2.145,0.379v-1.136c-0.63-0.252-1.388-0.252-2.145-0.379c-1.515,0-3.029,0.379-4.671,0.757
			c-1.262,0.379-2.524,0.632-3.914,0.759v1.009c1.515-0.126,2.778-0.377,4.167-0.756C33.618,18.28,35.006,17.901,36.395,18.028z
			 M36.395,23.204c0.883,0,1.642,0.126,2.145,0.38v-1.138c-0.63-0.251-1.388-0.251-2.145-0.378c-1.515,0-3.029,0.378-4.671,0.757
			c-1.262,0.379-2.524,0.632-3.914,0.759v1.009c1.515-0.126,2.778-0.506,4.167-0.759C33.618,23.457,35.006,23.078,36.395,23.204z
			 M36.395,15.377c0.883,0,1.642,0.252,2.145,0.379v-1.138c-0.63-0.251-1.388-0.377-2.145-0.377c-1.515,0-3.029,0.377-4.671,0.756
			c-1.262,0.379-2.524,0.632-3.914,0.759v1.009c1.39-0.126,2.778-0.379,4.167-0.757C33.618,15.756,35.006,15.377,36.395,15.377z
			 M29.577,92.638C17.078,72.06,17.332,51.986,17.332,49.462V0.86h94.68v48.602c0,2.524,0.253,22.598-12.245,43.176
			c-11.108,18.684-27.898,26.888-35.095,29.412C57.603,119.525,40.813,111.321,29.577,92.638z M54.826,88.851l-2.526-2.02
			l1.389-3.033l-3.281,0.631l-1.388-2.899l-1.516,2.899l-3.156-0.631l1.389,3.033l-2.526,2.02l3.156,0.754v3.285l2.652-2.021
			l2.524,2.021v-3.285L54.826,88.851z M68.333,109.426l3.156-1.517l-3.156-1.386l1.135-3.283l-3.282,1.264l-1.389-3.156
			l-1.389,3.029l-3.282-1.264l1.262,3.283l-3.157,1.387l3.157,1.516l-1.262,3.283l3.282-1.261l1.389,3.153l1.389-3.153l3.282,1.261
			L68.333,109.426z M61.39,71.807l-2.524,2.147l3.156,0.757v3.279l2.524-2.018l2.652,2.018l0.126-3.279l3.155-0.757l-2.524-2.147
			l1.389-3.029l-3.282,0.63l-1.389-2.904l-1.388,2.904l-3.283-0.63L61.39,71.807z M72.499,92.512l1.894-2.022l-2.776-0.505
			l-1.262-2.521l-1.264,2.521l-2.777,0.505l2.021,2.022l-0.506,2.775l2.526-1.263l2.524,1.263L72.499,92.512z M81.841,82.537
			l1.515-2.524h-2.903l-1.389-2.527l-1.388,2.527h-2.903l1.515,2.524l-1.515,2.523h2.903l1.388,2.529l1.389-2.529h2.903
			L81.841,82.537z M104.059,21.689c-0.757,0.379-1.389,1.009-1.766,1.768c-0.379,0.63-0.506,1.262-0.506,1.894
			c0,0.125,0,0.252,0,0.504c0.379-0.252,0.757-0.504,1.136-0.756c0.253-0.253,0.506-0.632,0.758-0.886
			c0.253-0.505,0.378-1.262,0.378-1.894C104.059,22.068,104.059,21.816,104.059,21.689z M94.213,36.206
			c0.756,0.379,1.642,0.506,2.524,0.379c0.884-0.125,1.515-0.505,2.146-1.136c-0.759-0.378-1.515-0.505-2.399-0.378
			C95.601,35.196,94.843,35.703,94.213,36.206z M94.213,34.817c0.379-0.63,0.63-1.389,0.63-2.145c0-0.127,0-0.127,0-0.253
			c-0.757,0.379-1.389,0.882-1.892,1.516l0,0c-0.38,0.629-0.632,1.388-0.632,2.145c0,0.126,0,0.126,0,0.253
			C93.203,36.08,93.834,35.576,94.213,34.817z M95.223,34.564C95.223,34.564,95.223,34.691,95.223,34.564
			c0.252,0,0.378,0,0.505-0.124c0.506-0.38,0.757-0.885,1.01-1.517c0.126-0.378,0.252-0.883,0.252-1.263
			c0-0.377-0.126-0.757-0.252-1.135c-0.504,0.378-0.883,0.758-1.137,1.262C95.601,32.924,95.475,33.809,95.223,34.564z
			 M97.621,32.546C97.621,32.673,97.621,32.673,97.621,32.546c0.252,0,0.378-0.126,0.504-0.253c0.379-0.505,0.506-1.009,0.633-1.641
			c0-0.126,0-0.253,0-0.38c0-0.63-0.254-1.388-0.633-2.018c-0.377,0.503-0.756,1.009-0.883,1.513
			C97.621,30.904,97.748,31.661,97.621,32.546z M99.388,30.021C99.388,30.146,99.388,30.146,99.388,30.021
			c0.253,0,0.379-0.126,0.506-0.378c0.126-0.379,0.252-0.758,0.252-1.263c0-0.125,0-0.378,0-0.505
			c-0.126-0.758-0.505-1.515-1.136-2.146c-0.252,0.505-0.379,1.136-0.379,1.642C99.01,28.38,99.263,29.138,99.388,30.021z
			 M100.651,27.117C100.651,27.243,100.651,27.243,100.651,27.117c0.251-0.126,0.251-0.253,0.377-0.504c0-0.127,0-0.127,0-0.253
			c0-0.506-0.126-1.01-0.251-1.515c-0.252-0.759-0.884-1.262-1.642-1.768c-0.126,0.252-0.126,0.63-0.126,0.883
			c0,0.252,0,0.506,0.126,0.758C99.894,25.603,100.398,26.36,100.651,27.117z M101.155,24.087L101.155,24.087
			c0.127-0.126,0.253-0.379,0.253-0.503c-0.126-0.633-0.253-1.138-0.631-1.642c-0.505-0.632-1.137-1.138-2.02-1.389
			c0,0.63,0.126,1.262,0.378,1.766C100.02,22.698,100.651,23.33,101.155,24.087z M101.028,20.427
			c-0.251-0.632-0.503-1.137-1.009-1.515c-0.632-0.505-1.262-0.758-2.146-0.884c0.126,0.632,0.379,1.137,0.758,1.515
			c0.883,0.252,1.642,0.758,2.271,1.262h0.126C101.028,20.805,101.028,20.678,101.028,20.427z M100.02,18.028
			c0-0.252-0.126-0.379-0.126-0.63c-0.38-0.506-0.758-0.884-1.263-1.138c-0.758-0.377-1.515-0.503-2.397-0.377
			c0.377,0.504,0.63,1.009,1.136,1.388C98.379,17.271,99.263,17.523,100.02,18.028L100.02,18.028z M99.514,34.188
			c0.759-0.252,1.389-0.886,1.895-1.642c-0.883-0.126-1.768-0.126-2.524,0.127c-0.632,0.251-1.263,0.883-1.768,1.515
			c0.379,0,0.883,0.126,1.263,0.253C98.758,34.44,99.136,34.44,99.514,34.188z M101.66,31.284c0.633-0.506,1.137-1.264,1.516-2.146
			c-0.883,0-1.768,0.252-2.398,0.757l0,0c-0.632,0.505-1.137,1.137-1.39,1.894c0.379-0.127,0.885-0.127,1.264-0.127
			C101.028,31.661,101.408,31.535,101.66,31.284z M103.934,25.476c-0.758,0.253-1.515,0.633-2.146,1.262
			c-0.505,0.633-0.759,1.391-0.885,2.273c0.38-0.126,0.758-0.253,1.264-0.379c0.378-0.252,0.631-0.504,0.883-0.757
			C103.681,27.243,103.934,26.36,103.934,25.476z M103.176,17.901c-0.632,0.632-1.136,1.264-1.389,2.146
			c-0.127,0.253-0.127,0.63-0.127,1.009c0,0.506,0.127,1.011,0.254,1.389c0.252-0.378,0.63-0.63,0.883-0.883
			c0.252-0.379,0.379-0.758,0.505-1.136c0.127-0.252,0.127-0.632,0.127-0.884C103.555,19.039,103.429,18.533,103.176,17.901z
			 M100.651,16.892c0,0.757,0.251,1.516,0.757,2.273c0.126-0.379,0.379-0.758,0.632-1.137c0.126-0.379,0.253-0.757,0.253-1.136l0,0
			c0-0.883-0.253-1.641-0.759-2.397C101.028,15.251,100.651,16.009,100.651,16.892L100.651,16.892z M98.631,13.23
			c0,0.252,0,0.632,0.127,0.884c0.126,0.757,0.63,1.389,1.262,2.021c0.126-0.379,0.253-0.884,0.379-1.263c0-0.127,0-0.127,0-0.253
			c0-0.251,0-0.504-0.126-0.883c-0.253-0.756-0.632-1.515-1.389-2.146C98.758,12.094,98.631,12.6,98.631,13.23z M98.252,14.745
			c-0.504-0.378-1.01-0.63-1.515-0.883c-0.757-0.252-1.642-0.126-2.398,0.126c0.379,0.505,0.884,0.883,1.389,1.136
			c0.883-0.127,1.894-0.127,2.651,0.126h0.125C98.379,15.125,98.379,14.998,98.252,14.745z M95.854,9.949
			c0,0.63,0.126,1.262,0.379,1.893c0.377,0.758,1.009,1.264,1.766,1.641c0-0.503,0-0.883,0.126-1.389
			c-0.126-0.379-0.126-0.756-0.377-1.009c-0.379-0.758-1.011-1.389-1.768-1.768C95.854,9.57,95.854,9.697,95.854,9.949z
			 M92.571,10.2c0.253,0.885,0.757,1.642,1.389,2.021c0.632,0.379,1.389,0.632,2.146,0.759c-0.252-0.252-0.379-0.506-0.632-0.885
			l0,0c-0.126-0.252-0.252-0.632-0.379-0.883c-0.127-0.126-0.127-0.126-0.253-0.252C94.339,10.453,93.581,10.2,92.571,10.2z
			 M82.725,30.021c0,0.632,0.505,1.39,1.641,1.39h2.146c-0.252,0.757-0.506,1.892-0.506,3.03c0,1.513,0.254,2.776,0.759,3.66
			c-1.642-0.254-2.777-0.631-3.915-1.263h-0.125l-0.252,0.632h0.125c1.011,0.504,1.894,0.757,3.031,1.136
			c0,0,0.883,0.127,1.515,0.253c-0.126,0.126-0.252,0.377-0.252,0.631c0,0.505,0.377,0.884,0.883,0.884
			c0.505,0,0.884-0.379,0.884-0.884c0-0.254-0.126-0.505-0.252-0.631c0.63-0.126,1.389-0.253,1.389-0.253
			c1.135-0.252,2.145-0.505,3.156-1.136h0.125l-0.252-0.758h-0.126c-1.137,0.632-2.273,1.009-3.915,1.262
			c0.38-0.882,0.758-2.145,0.758-3.66c0-1.137-0.126-2.272-0.505-3.029h2.146c1.137,0,1.642-0.632,1.642-1.39
			c0-0.505-0.379-1.01-1.011-1.01c-0.504,0-1.01,0.379-1.01,1.01c0,0.126,0,0.252,0.126,0.378c0.127,0.127,0.127,0.38-0.252,0.38
			h-1.263V14.619c0-2.145-0.126-4.795-1.389-7.322l-0.379-0.756l-0.379,0.756c-1.263,2.526-1.389,5.177-1.389,7.322v16.034h-1.262
			c-0.379,0-0.253-0.253-0.253-0.38c0-0.126,0.126-0.252,0.126-0.378c0-0.505-0.379-1.01-0.883-1.01
			C83.229,29.011,82.725,29.517,82.725,30.021z M80.073,31.914c-0.253-0.504-0.63-0.883-1.136-1.262
			c-0.126,0.379-0.253,0.758-0.253,1.136c0,0.379,0.127,0.885,0.253,1.263c0.126,0.632,0.506,1.01,0.883,1.514
			c0.126,0,0.38,0.127,0.506,0.127v-0.127C80.073,33.809,79.946,32.924,80.073,31.914z M79.317,15.883
			c-0.759-0.126-1.642,0-2.4,0.377c-0.504,0.253-1.01,0.632-1.262,1.138c0,0.251,0,0.378-0.127,0.63h0.127
			c0.758-0.504,1.642-0.757,2.65-0.757C78.685,16.892,79.063,16.387,79.317,15.883z M78.432,29.895
			c-0.126-0.505-0.504-1.01-0.883-1.515c-0.379,0.631-0.632,1.263-0.632,2.02c0,0.127,0,0.253,0,0.379
			c0,0.632,0.253,1.136,0.632,1.642c0.127,0.126,0.379,0.253,0.504,0.379v-0.126C77.928,31.661,78.053,30.904,78.432,29.895z
			 M75.528,28.506c0,0.379,0.127,0.758,0.253,1.262c0.126,0.127,0.253,0.253,0.379,0.379c0,0,0-0.126,0.127-0.126
			c0.126-0.883,0.378-1.766,0.883-2.524c0-0.632-0.253-1.136-0.505-1.642c-0.631,0.632-1.01,1.389-1.137,2.147
			C75.528,28.128,75.528,28.38,75.528,28.506z M76.538,24.972c0.127-0.253,0.127-0.505,0.127-0.759c0-0.252-0.127-0.629-0.127-0.883
			c-0.757,0.504-1.263,1.01-1.64,1.769c-0.253,0.504-0.253,1.01-0.253,1.515c0,0.124,0,0.124,0,0.251
			c0.127,0.127,0.253,0.379,0.253,0.506c0,0,0.125,0,0.125-0.127C75.275,26.36,75.781,25.603,76.538,24.972z M74.646,20.427
			c0,0.127,0,0.378,0,0.504h0.127c0.63-0.63,1.388-1.009,2.271-1.262c0.378-0.504,0.632-1.01,0.758-1.516
			c-0.885,0.126-1.642,0.379-2.273,0.885C75.149,19.29,74.772,19.922,74.646,20.427z M74.267,23.584
			c0.126,0.124,0.126,0.377,0.126,0.629c0,0,0,0,0.127,0c0.504-0.756,1.136-1.388,2.019-1.767c0.253-0.504,0.379-1.136,0.379-1.768
			c-0.883,0.253-1.515,0.758-2.019,1.39C74.52,22.446,74.267,22.951,74.267,23.584z M73.761,26.737
			c-0.504-0.629-1.262-1.009-2.145-1.262c0.126,0.885,0.377,1.642,0.883,2.273c0.252,0.253,0.632,0.506,0.884,0.757
			c0.378,0.126,0.757,0.252,1.136,0.379C74.52,28.128,74.267,27.37,73.761,26.737z M72.499,29.138
			c0.252,0.883,0.758,1.641,1.388,2.146c0.253,0.251,0.632,0.377,1.011,0.504c0.504,0,0.883,0,1.262,0.126
			c-0.379-0.756-0.758-1.515-1.388-1.894l0,0C74.267,29.39,73.383,29.138,72.499,29.138z M74.267,32.673
			c0.506,0.756,1.009,1.263,1.894,1.641c0.378,0.127,0.757,0.251,1.137,0.251c0.379-0.124,0.883-0.124,1.262-0.251
			c-0.506-0.631-1.137-1.263-1.768-1.515C76.034,32.42,75.149,32.42,74.267,32.673z M76.791,35.576
			c0.631,0.63,1.389,1.009,2.272,1.136c0.757,0.126,1.642-0.127,2.398-0.379c-0.63-0.63-1.389-1.01-2.271-1.137l0,0
			C78.432,34.944,77.549,35.196,76.791,35.576z M83.355,36.333c0-0.127,0-0.127,0-0.253c0-0.757-0.252-1.516-0.631-2.145l0,0
			c-0.505-0.634-1.137-1.137-1.893-1.516c0,0.126,0,0.126,0,0.253c0,0.756,0.251,1.515,0.63,2.145
			C81.841,35.576,82.473,36.08,83.355,36.333z M80.073,12.094c-0.127,0.253-0.379,0.633-0.63,0.885c0.757,0,1.515-0.252,2.145-0.759
			c0.632-0.506,1.137-1.262,1.516-2.021c-0.884,0-1.769,0.253-2.398,0.759c-0.126,0.126-0.126,0.126-0.253,0.252
			C80.326,11.462,80.2,11.842,80.073,12.094L80.073,12.094z M77.549,12.094c0.127,0.506,0.127,0.885,0.127,1.389
			c0.756-0.377,1.388-1.009,1.642-1.641c0.377-0.63,0.503-1.262,0.503-1.893c0-0.252,0-0.379-0.126-0.632
			c-0.757,0.379-1.389,1.01-1.767,1.768C77.802,11.462,77.676,11.715,77.549,12.094z M77.17,15.377
			C77.17,15.377,77.297,15.377,77.17,15.377c1.01-0.252,1.894-0.252,2.776-0.126c0.506-0.253,1.012-0.632,1.389-1.136
			c-0.756-0.252-1.641-0.379-2.397-0.126c-0.632,0.126-1.136,0.378-1.516,0.883C77.297,14.998,77.297,15.125,77.17,15.377z
			 M75.149,14.619c0,0.126,0,0.126,0,0.253c0.253,0.379,0.379,0.884,0.379,1.263c0.632-0.632,1.01-1.263,1.263-2.021
			c0.126-0.252,0.126-0.632,0.126-0.884c0-0.503-0.126-1.136-0.379-1.641c-0.631,0.631-1.136,1.263-1.389,2.146
			C75.275,13.989,75.149,14.242,75.149,14.619z M73.383,16.892c0,0.379,0.125,0.757,0.251,1.136
			c0.253,0.379,0.506,0.758,0.632,1.137c0.379-0.632,0.757-1.39,0.757-2.273l0,0c0-0.756-0.378-1.641-0.757-2.397
			C73.761,15.251,73.383,16.009,73.383,16.892L73.383,16.892z M72.12,19.542c0,0.379,0,0.632,0.127,0.884
			c0.126,0.378,0.252,0.757,0.505,1.136c0.379,0.253,0.632,0.505,0.883,0.883c0.127-0.504,0.253-1.01,0.253-1.389
			c0-0.379,0-0.63-0.126-1.009c-0.252-0.758-0.757-1.515-1.389-2.146C72.247,18.407,72.12,19.039,72.12,19.542z M71.489,22.195
			c0,0.63,0.127,1.389,0.504,1.892c0.126,0.38,0.379,0.632,0.758,0.885c0.379,0.127,0.757,0.379,1.136,0.631
			c0-0.127,0-0.378,0-0.504c0-0.632-0.126-1.265-0.504-1.895c-0.379-0.758-1.011-1.388-1.894-1.768
			C71.489,21.816,71.489,22.068,71.489,22.195z M40.813,32.167c0.883-0.632,2.021-0.883,3.41-0.883c1.515,0,3.029,0.251,4.67,0.757
			c1.642,0.379,3.534,0.883,5.301,0.758c0-0.885,0-18.557,0-21.84c0-0.253,0-0.379,0-0.506c-1.894,0.126-3.787-0.377-5.554-0.756
			c-1.515-0.379-3.03-0.758-4.292-0.632c-1.894,0-2.905,0.632-3.536,1.135v0.759V32.167z M26.547,32.673
			c1.767,0.126,3.535-0.253,5.302-0.759c1.642-0.379,3.156-0.756,4.671-0.756c1.388,0,2.524,0.377,3.407,0.883V10.959V10.2
			c-0.63-0.63-1.64-1.135-3.534-1.135c-1.389,0-2.777,0.252-4.292,0.632c-1.768,0.503-3.535,0.883-5.556,0.756
			c0,0.126,0,0.253,0,0.506C26.547,14.115,26.547,31.914,26.547,32.673z M23.138,36.206c0,0,14.771,0,15.276,0
			c0.378,0.632,1.011,1.138,1.894,1.138c0.884,0,1.641-0.506,1.894-1.138c0.505,0,15.275,0,15.275,0V10.959h-0.506h-1.388
			l0.126,0.503v0.127V34.44c-1.135,0-13.507,0-14.139,0c-0.251,0.377-0.504,0.504-1.262,0.504c-0.63,0-0.883-0.127-1.136-0.504
			c-0.632,0-11.992,0-14.266,0V11.589v-0.127l0.126-0.503h-1.894V36.206z M28.694,86.831l35.978-32.32l36.106,32.447
			c2.398-4.547,4.04-8.968,5.428-13.131L64.671,36.46L23.265,73.7C24.528,77.864,26.294,82.285,28.694,86.831z M36.395,25.729
			c0.883,0,1.642,0.126,2.145,0.38v-1.137c-0.63-0.253-1.388-0.253-2.145-0.379c-1.515,0-3.029,0.379-4.671,0.758
			c-1.262,0.378-2.524,0.631-3.914,0.758v1.009c1.39-0.126,2.778-0.504,4.167-0.757C33.618,26.108,35.006,25.729,36.395,25.729z
			 M36.395,28.38c0.883,0,1.642,0.126,2.145,0.378v-1.135c-0.63-0.253-1.388-0.38-2.145-0.38c-1.515,0-3.029,0.38-4.671,0.759
			c-1.262,0.378-2.524,0.63-3.914,0.756v1.01c1.39-0.125,2.778-0.504,4.167-0.757C33.618,28.632,35.006,28.255,36.395,28.38z
			 M36.395,12.853c0.883,0,1.642,0.253,2.145,0.378v-1.136c-0.63-0.252-1.388-0.252-2.145-0.379c-1.515,0-3.029,0.379-4.671,0.759
			c-1.262,0.379-2.524,0.632-3.914,0.757v1.011c1.39-0.127,2.778-0.379,4.167-0.759C33.618,13.105,35.006,12.853,36.395,12.853z
			 M48.64,18.786c1.262,0.379,2.65,0.63,4.166,0.757v-1.009c-1.262-0.126-2.651-0.379-3.913-0.758
			c-1.641-0.378-3.156-0.757-4.67-0.757c-0.759,0-1.516,0.126-2.147,0.379v1.136c0.506-0.253,1.262-0.379,2.147-0.379
			C45.61,17.901,47.125,18.28,48.64,18.786z M48.64,13.61c1.262,0.379,2.65,0.632,4.166,0.757v-1.011
			c-1.262-0.126-2.651-0.377-3.913-0.756c-1.641-0.379-3.156-0.758-4.67-0.758c-0.759,0-1.516,0.126-2.147,0.379v1.136
			c0.506-0.251,1.262-0.377,2.147-0.377C45.61,12.853,47.125,13.105,48.64,13.61z M48.64,23.834
			c1.262,0.253,2.777,0.633,4.166,0.759v-1.009c-1.389-0.127-2.651-0.38-3.913-0.759c-1.641-0.379-3.156-0.757-4.544-0.757
			c-0.759,0-1.515,0.127-2.146,0.251v1.138c0.505-0.253,1.262-0.379,2.146-0.379C45.61,23.078,47.125,23.457,48.64,23.834z
			 M48.64,16.135c1.262,0.378,2.65,0.63,4.166,0.756v-1.009c-1.262-0.126-2.651-0.379-3.913-0.758
			c-1.641-0.379-3.156-0.757-4.67-0.757c-0.759,0-1.516,0.127-2.147,0.378v1.138c0.506-0.253,1.262-0.379,2.147-0.379
			C45.61,15.377,47.125,15.756,48.64,16.135z M48.64,26.486c1.262,0.378,2.65,0.631,4.166,0.757v-1.01
			c-1.262-0.125-2.651-0.505-3.913-0.758c-1.641-0.377-3.156-0.757-4.67-0.757c-0.759,0-1.516,0.127-2.147,0.38v1.135
			c0.506-0.252,1.262-0.379,2.147-0.379C45.61,25.729,47.125,26.108,48.64,26.486z M48.64,29.011
			c1.262,0.379,2.65,0.632,4.166,0.757v-1.01c-1.262-0.126-2.651-0.378-3.913-0.756c-1.641-0.379-3.156-0.759-4.67-0.759
			c-0.759,0-1.516,0.127-2.147,0.38v1.135c0.506-0.252,1.262-0.378,2.147-0.378C45.61,28.255,47.125,28.632,48.64,29.011z
			 M129.182,82.663l-0.253,0.632c-2.397,7.953-6.438,15.907-9.342,21.082l-0.63,1.012l-4.168-3.787
			c-0.127,0.248-0.377,0.627-0.504,0.88c-10.604,16.919-25.502,29.163-43.301,35.729l-6.313,2.272l-6.312-2.272
			c-17.672-6.438-32.695-18.81-43.173-35.729c-0.126-0.253-0.253-0.632-0.506-0.88l-4.292,3.787l-0.632-1.138
			C6.853,98.95,2.941,90.994,0.415,83.169l-0.126-0.506l10.227-9.215l1.262-1.137l0.506,1.516c0.503,1.893,1.135,3.658,1.766,5.427
			l2.905-2.649l1.135-1.012l0.504,1.517c2.146,6.437,5.05,12.495,8.458,17.927c8.963,14.263,21.461,24.616,36.231,30.045
			c0,0,1.009,0.378,1.515,0.505c0.505-0.127,1.515-0.505,1.515-0.505c14.77-5.429,27.394-15.782,36.231-30.045
			c3.409-5.432,6.313-11.49,8.459-17.927l0.505-1.517l4.04,3.661c0.63-1.769,1.262-3.534,1.767-5.427l0.504-1.516L129.182,82.663z
			 M8.748,97.812L6.853,85.819l5.556-5.049c-0.632-1.517-1.137-3.158-1.642-4.798c-1.641,1.513-7.323,6.564-8.079,7.322
			C4.329,88.344,6.475,93.396,8.748,97.812z M13.671,99.834c-1.262-2.147-2.526-4.42-3.536-6.69l1.389,8.706
			C11.904,101.348,12.787,100.59,13.671,99.834z M119.334,93.144c-1.009,2.271-2.271,4.543-3.533,6.69l0,0
			c0.882,0.756,1.641,1.514,2.145,2.016L119.334,93.144z M120.092,86.199c-0.885-0.758-6.312-5.68-7.827-7.07
			c-2.146,6.059-4.797,11.865-8.08,17.041c-9.089,14.646-21.965,25.248-37.24,30.929l-2.273,0.758l-2.145-0.758
			C47.251,121.545,34.5,110.816,25.285,96.17c-3.283-5.176-5.934-10.982-8.08-17.041c-1.642,1.391-6.942,6.313-7.828,7.07
			c2.021,5.301,4.671,10.476,7.577,15.148c10.352,16.539,24.995,28.531,42.29,34.843c0,0,5.049,1.768,5.555,2.02
			c0.632-0.252,5.68-2.02,5.68-2.02c17.296-6.312,31.94-18.431,42.291-34.843C115.421,96.802,118.071,91.626,120.092,86.199z
			 M126.783,83.169c-0.758-0.758-6.439-5.811-8.08-7.323c-0.505,1.64-1.01,3.283-1.641,4.799l5.554,5.048l-1.893,12.119
			C122.868,93.396,125.143,88.344,126.783,83.169z M17.963,98.57l0.126,0.507l-0.379,0.252c-0.252-0.379-0.378-0.759-0.632-1.264
			c-0.251-0.379-0.503-0.759-0.756-1.264l0.379-0.127l0.377,0.38c0.379-0.38,1.011-0.885,1.265-1.39l-0.885-1.641l-1.767,0.38
			l0.126,0.505l-0.253,0.127c-0.125-0.38-0.377-0.632-0.503-1.012c-0.127-0.249-0.252-0.503-0.506-0.881l0.379-0.127l0.379,0.379
			c1.262,0,3.913-0.506,5.554-0.758c0.253,0.379,0.632,0.632,0.883,0.884l0.126,0.503l-1.642,2.019
			C19.352,96.928,18.343,98.191,17.963,98.57z M18.972,95.162l1.516-1.641l0,0l-2.272,0.503L18.972,95.162z M28.188,104.504
			l0.252-0.253c-0.252-0.252-0.379-0.506-0.631-0.884c-0.251-0.254-0.378-0.632-0.63-0.886l-0.379,0.254l0.252,0.505
			c-0.884,0.632-2.903,2.275-2.903,2.275l0,0c0.504-1.517,1.136-3.287,1.768-4.8c-0.253-0.253-0.379-0.505-0.632-0.758
			c-0.127-0.249-0.379-0.503-0.506-0.756l-0.251,0.253l0.251,0.503c-0.377,0.378-0.756,0.632-1.262,1.01l-1.388,1.009
			c-0.506,0.379-0.883,0.632-1.389,0.884l-0.379-0.379l-0.252,0.254c0.252,0.252,0.379,0.505,0.632,0.884
			c0.252,0.253,0.379,0.632,0.632,0.885l0.251-0.253l-0.377-0.632c0.883-0.632,2.019-1.518,3.029-2.271l0,0
			c-0.632,1.513-1.138,3.156-1.767,4.922c0.126,0.127,0.252,0.38,0.378,0.505c0.126,0.127,0.251,0.38,0.378,0.507
			c0.505-0.38,1.011-0.885,1.767-1.387l1.389-1.012c0.506-0.379,1.011-0.632,1.389-0.884L28.188,104.504z M28.694,109.174
			c-1.388,1.264-1.262,3.156-0.126,4.293c0.756,0.756,1.515,1.261,2.903,1.388l0.126-0.759c-0.758-0.127-1.389-0.376-1.767-0.882
			c-0.884-0.884-0.884-2.145,0.126-3.156c1.009-1.011,2.147-0.632,2.776,0.127c0.379,0.38,0.633,0.885,0.633,1.39l-0.253,0.505
			l0.253,0.376c0.378-0.252,0.883-0.627,1.262-0.754c-0.253-0.759-0.633-1.264-1.136-1.896
			C32.103,108.162,30.083,107.909,28.694,109.174z M40.939,120.786c-1.136,1.391-2.903,1.517-4.671,0.127
			c-1.641-1.388-1.894-3.026-0.632-4.669c1.138-1.39,3.03-1.517,4.671-0.126C41.949,117.508,42.202,119.273,40.939,120.786z
			 M39.677,116.876c-0.885-0.758-2.021-0.38-2.903,0.505c-0.884,1.008-0.884,2.145,0,2.9c0.883,0.759,2.018,0.38,2.903-0.502
			C40.434,118.769,40.56,117.508,39.677,116.876z M49.776,124.954c-0.379,0.759-1.262,0.885-2.146,0.505
			c0.125,0.629,0.379,2.777,0.505,3.156l0.126,0.253l-0.252,0.379c-0.504-0.379-1.136-0.632-1.641-0.884
			c0-1.012-0.127-2.524-0.253-3.409l-0.377-0.253l-0.252,0.505c-0.379,0.507-0.633,1.009-0.759,1.387l0.379,0.381l-0.253,0.378
			c-0.378-0.253-0.756-0.505-1.135-0.759c-0.379-0.251-0.759-0.505-1.262-0.754l0.252-0.38l0.504,0.254
			c0.378-0.38,0.632-0.886,1.011-1.388l0.883-1.517c0.379-0.506,0.632-1.011,0.883-1.391l-0.377-0.378l0.252-0.379
			c0.251,0.252,0.63,0.379,0.883,0.632c0.379,0.252,0.758,0.378,1.136,0.632c0.379,0.252,0.758,0.378,1.138,0.632
			C50.282,123.314,50.282,124.198,49.776,124.954z M47.882,122.809c-0.378-0.252-0.504-0.252-0.757-0.379
			c-0.126,0.252-0.379,0.632-0.632,1.011l-0.253,0.38c0.127,0.126,0.253,0.252,0.379,0.378c0.758,0.503,1.389,0.503,1.767-0.126
			C48.64,123.566,48.514,123.188,47.882,122.809z M57.477,129.627c-0.126,1.134-0.252,2.773-0.252,3.405l0.379,0.253l-0.126,0.379
			c-0.379-0.252-0.883-0.379-1.262-0.632c-0.379-0.254-0.884-0.379-1.262-0.506l0.127-0.38l0.503,0.127
			c0.126-0.502,0.252-1.261,0.252-1.766l-1.767-0.754l-1.136,1.386l0.379,0.253l-0.127,0.379c-0.378-0.127-0.757-0.379-1.011-0.505
			c-0.251-0.127-0.629-0.254-0.883-0.379l0.126-0.38l0.505,0.127c1.009-0.756,2.777-2.651,4.04-4.042
			c0.505,0.127,0.883,0.127,1.262,0.254l0.505,0.378L57.477,129.627z M56.214,127.352L56.214,127.352L54.7,129.12l1.262,0.634
			L56.214,127.352z M74.772,131.771c-0.253-0.505-0.506-0.884-0.759-1.513l-0.63-1.517c-0.252-0.632-0.505-1.012-0.632-1.518
			l0.506-0.251l-0.126-0.381c-0.379,0.254-0.884,0.381-1.262,0.632c-0.379,0.127-0.884,0.38-1.264,0.506l0.126,0.38l0.506-0.127
			c0.252,0.505,0.505,0.885,0.756,1.517l0.632,1.513c0.253,0.632,0.379,1.012,0.632,1.514l-0.506,0.252l0.127,0.38
			c0.379-0.253,0.883-0.38,1.262-0.632c0.379-0.126,0.883-0.375,1.262-0.502l-0.127-0.38L74.772,131.771z M85.629,125.964
			c-0.252-0.378-0.632-0.883-0.885-1.39l-0.883-1.513c-0.38-0.505-0.632-1.012-0.758-1.391l0.378-0.378l-0.252-0.38
			c-0.38,0.253-0.757,0.505-1.01,0.632c-0.379,0.253-0.758,0.38-1.137,0.632c0.252,0.758,0.758,3.787,0.884,4.416
			c-0.632-0.505-2.903-2.271-3.408-2.899c-0.379,0.253-0.757,0.505-1.01,0.629c-0.379,0.252-0.758,0.379-1.136,0.632l0.252,0.379
			l0.505-0.127l0.379,0.758c0.379,0.756,1.769,3.031,2.02,3.663l-0.378,0.379l0.253,0.38c0.251-0.127,0.63-0.38,0.883-0.507
			c0.253-0.125,0.632-0.379,0.883-0.505l-0.251-0.379l-0.506,0.252c-0.252-0.379-0.632-0.884-0.884-1.391l-0.505-0.883
			c-0.379-0.759-0.758-1.261-0.884-1.515l0,0c2.146,1.893,3.408,2.777,3.914,3.283l0.756-0.506l-1.009-5.048l0,0
			c0.126,0.252,0.506,0.758,0.884,1.513l0.505,0.885c0.379,0.502,0.506,1.007,0.758,1.513l-0.379,0.38l0.127,0.378
			c0.377-0.252,0.756-0.505,1.136-0.758c0.379-0.252,0.883-0.506,1.262-0.757l-0.127-0.378H85.629z M91.436,121.545
			c-0.379-0.379-0.758-0.759-1.137-1.264l-0.758-1.008c-0.378-0.38-0.758-0.885-1.009-1.387c0.126-0.127,0.251-0.379,0.504-0.506
			c0.632-0.505,1.138-0.38,1.515,0c0.379,0.506,0.506,1.135-0.126,1.513c-0.126,0.127-0.251,0.254-0.378,0.254l0.252,0.758
			c0.252-0.126,0.505-0.38,0.758-0.505c1.263-1.012,1.263-2.272,0.632-3.156c-0.632-0.758-1.642-0.885-2.652,0
			c-0.253,0.252-0.504,0.506-0.883,0.757c-0.379,0.38-0.759,0.632-1.01,0.886c-0.252,0.253-0.632,0.502-1.011,0.755l0.253,0.252
			l0.506-0.252c0.377,0.379,0.756,0.759,1.135,1.264l1.01,1.388c0.379,0.505,0.759,0.884,1.011,1.264l-0.379,0.378l0.253,0.254
			c0.378-0.254,0.757-0.632,1.136-0.886c0.379-0.253,0.757-0.505,1.263-1.01l-0.254-0.253L91.436,121.545z M101.408,112.455
			l0.252,0.253c-0.378,0.254-0.632,0.632-1.009,1.012c-0.379,0.376-0.632,0.755-1.011,1.008l-0.253-0.253l0.253-0.379
			c-0.378-0.25-1.137-0.629-1.642-0.882l-1.389,1.387l0.885,1.518l0.378-0.254l0.252,0.254c-0.252,0.251-0.504,0.505-0.756,0.758
			c-0.253,0.252-0.506,0.505-0.632,0.757l-0.253-0.252l0.253-0.38c-0.38-1.137-1.642-3.534-2.398-5.173
			c0.253-0.381,0.504-0.759,0.63-1.139l0.506-0.252l2.273,1.01c1.01,0.506,2.524,1.135,3.029,1.261L101.408,112.455z
			 M97.495,112.835l-2.146-1.007l0,0l1.136,2.018L97.495,112.835z M107.847,104.251l0.253,0.253
			c-0.38,0.505-0.758,1.012-1.012,1.513c-1.135,0-2.65-0.122-3.533-0.122l-0.253,0.375l0.379,0.38
			c0.504,0.379,0.883,0.632,1.389,0.884l0.38-0.379l0.377,0.252c-0.253,0.377-0.631,0.756-0.883,1.135
			c-0.253,0.38-0.506,0.758-0.885,1.138l-0.378-0.253l0.253-0.505c-0.379-0.38-0.758-0.632-1.264-1.012l-1.388-1.008
			c-0.505-0.378-0.884-0.632-1.389-1.007l-0.38,0.375l-0.378-0.253c0.252-0.249,0.505-0.501,0.631-0.881
			c0.253-0.379,0.506-0.632,0.759-1.011c0.252-0.38,0.503-0.633,0.757-1.012c1.011-1.39,1.894-1.264,2.525-0.758
			c0.63,0.505,0.756,1.39,0.377,2.148c0.633,0,2.779-0.127,3.157-0.127L107.847,104.251z M103.176,103.745
			c-0.379-0.378-0.883-0.253-1.262,0.38c-0.254,0.252-0.38,0.506-0.506,0.632c0.252,0.126,0.506,0.506,1.011,0.759l0.378,0.252
			c0.126-0.127,0.252-0.252,0.379-0.379C103.681,104.757,103.681,104.251,103.176,103.745z M112.138,98.443
			c-1.135,1.893-2.776,2.399-4.418,1.391c-1.515-0.884-2.02-2.654-0.883-4.547c1.137-1.892,2.651-2.397,4.418-1.389
			C112.77,94.656,113.273,96.548,112.138,98.443z M110.371,95.287c-1.136-0.631-2.271-0.505-2.903,0.378
			c-0.631,1.01-0.126,2.021,1.011,2.778c1.136,0.634,2.271,0.507,2.903-0.378C112.012,97.055,111.508,95.916,110.371,95.287z
			 M64.671,131.013c-0.63,0-1.262,0.632-1.262,1.388c0,0.758,0.632,1.39,1.262,1.39c0.759,0,1.389-0.632,1.389-1.39
			C66.061,131.645,65.43,131.013,64.671,131.013z M15.439,88.976c0.756,0,1.388-0.632,1.388-1.261c0-0.757-0.632-1.389-1.388-1.389
			c-0.758,0-1.264,0.632-1.264,1.389C14.175,88.344,14.808,88.976,15.439,88.976z M114.158,88.976c0.758,0,1.39-0.632,1.39-1.261
			c0-0.757-0.632-1.389-1.39-1.389c-0.632,0-1.262,0.632-1.262,1.389C112.77,88.344,113.4,88.976,114.158,88.976z"/>
	</g>
</g>
</svg>
